<svg xmlns="http://www.w3.org/2000/svg" xmlns:xlink="http://www.w3.org/1999/xlink" xmlns:lucid="lucid" width="1051.88" height="795.73"><g transform="translate(-618.8489840128304 -185.3469784570951)" lucid:page-tab-id="0_0"><path d="M620.35 449.56a6 6 0 0 1 6-6h194.62a6 6 0 0 1 6 6V570.9a6 6 0 0 1-6 6H626.35a6 6 0 0 1-6-6z" stroke="#3a414a" stroke-width="3" fill="#fff"/><use xlink:href="#a" transform="matrix(1,0,0,1,630.6798140752712,450.22225354041683) translate(36.01666666666667 50.8)"/><use xlink:href="#b" transform="matrix(1,0,0,1,630.6798140752712,450.22225354041683) translate(103.76111111111112 50.8)"/><use xlink:href="#c" transform="matrix(1,0,0,1,630.6798140752712,450.22225354041683) translate(23.125000000000014 82)"/><use xlink:href="#d" transform="matrix(1,0,0,1,630.6798140752712,450.22225354041683) translate(106.68611111111112 82)"/><path d="M913.74 192.85a6 6 0 0 1 6-6h486.04a6 6 0 0 1 6 6v780.73a6 6 0 0 1-6 6H919.74a6 6 0 0 1-6-6z" stroke="#3a414a" stroke-width="3" fill="#fff"/><use xlink:href="#e" transform="matrix(1,0,0,1,938.6385425302842,226.48360360295464) translate(174.05277777777778 20.8)"/><path d="M959.7 452.06a6 6 0 0 1 6-6h138.67a6 6 0 0 1 6 6V573.4a6 6 0 0 1-6 6H965.7a6 6 0 0 1-6-6z" stroke="#3a414a" stroke-width="3" fill="#fff"/><use xlink:href="#f" transform="matrix(1,0,0,1,967.237078990859,452.7241790822289) translate(16.866666666666667 65.8)"/><path d="M1035.04 629.18v-30.8" stroke="#3a414a" stroke-width="3" stroke-linejoin="round" fill="none"/><path d="M1036.5 630.7h-2.94v-1.55h2.95z" stroke="#3a414a" stroke-width=".05" fill="#3a414a"/><path d="M1035.04 583.9l7.5 12.98h-15z" stroke="#3a414a" stroke-width="3" fill="#3a414a"/><path d="M1458.62 444.23a6 6 0 0 1 6-6h198.6a6 6 0 0 1 6 6v108a6 6 0 0 1-6 6h-198.6a6 6 0 0 1-6-6z" stroke="#3a414a" stroke-width="3" fill="#fff"/><use xlink:href="#g" transform="matrix(1,0,0,1,1469.1540917002235,444.2342270227631) translate(44.44444444444445 44.425)"/><use xlink:href="#h" transform="matrix(1,0,0,1,1469.1540917002235,444.2342270227631) translate(0.5694444444444571 75.625)"/><use xlink:href="#i" transform="matrix(1,0,0,1,1469.1540917002235,444.2342270227631) translate(84.13055555555556 75.625)"/><use xlink:href="#j" transform="matrix(1,0,0,1,1469.1540917002235,444.2342270227631) translate(138.94722222222222 75.625)"/><path d="M959.7 281.23a6 6 0 0 1 6-6h138.67a6 6 0 0 1 6 6v121.33a6 6 0 0 1-6 6H965.7a6 6 0 0 1-6-6z" stroke="#3a414a" stroke-width="3" fill="#fff"/><use xlink:href="#k" transform="matrix(1,0,0,1,967.237078990859,281.8927712907076) translate(17.552777777777784 50.8)"/><use xlink:href="#l" transform="matrix(1,0,0,1,967.237078990859,281.8927712907076) translate(41.27777777777778 82)"/><path d="M725.08 424.64l.65-3.4.8-3.46.93-3.3 1.03-3.14 1.1-3.02 1.23-2.9 1.32-2.8 1.42-2.73 1.52-2.65 1.63-2.58 1.75-2.52 1.88-2.47 2-2.44 2.18-2.4 2.33-2.37 2.5-2.36 2.72-2.33 2.93-2.33 3.2-2.33 3.52-2.32 3.85-2.33 4.26-2.34 4.73-2.34 5.3-2.36 5.97-2.36 6.8-2.37 7.84-2.36 9.14-2.33 10.85-2.3 13.14-2.2 16.5-2.08 21.98-1.83 33.98-1.36 50.6-.3" stroke="#3a414a" stroke-width="3" stroke-linejoin="round" fill="none"/><path d="M723.9 439.06l-6.4-13.56 14.94 1.23z" stroke="#3a414a" stroke-width="3" fill="#3a414a"/><path d="M958.2 343.37h-1.53v-2.94h1.53z" stroke="#3a414a" stroke-width=".05" fill="#3a414a"/><path d="M845.96 510.56l94.76 1.83" stroke="#3a414a" stroke-width="3" stroke-linejoin="round" fill="none"/><path d="M831.47 510.28l13.13-7.25-.3 15zM955.2 512.67l-13.13 7.24.3-14.98z" stroke="#3a414a" stroke-width="3" fill="#3a414a"/><path d="M829.97 510.3l.58.05.7.1.67.13.7.17.68.2.7.22.7.26.74.3.74.36.75.38.8.45.8.52.84.58.87.67.92.76.97.87 1.02 1 1.1 1.17 1.17 1.36 1.26 1.6 1.38 1.9 1.5 2.25 1.66 2.76 1.86 3.38 2.1 4.23 2.4 5.42 2.8 7.1 3.37 9.7 4.2 13.96 5.56 21.87 8.98 42.83 30.67 164.3 5.58 21.9 4.2 13.93 3.35 9.7 2.8 7.1 2.42 5.43 2.1 4.23 1.85 3.38 1.66 2.75 1.5 2.26 1.4 1.9 1.25 1.58 1.17 1.36.6.65" stroke="#333" stroke-width="3" stroke-linejoin="round" fill="none"/><path d="M830.04 508.78l-.06 2.95-1.5-.03v-2.95z" stroke="#333" stroke-width=".05" fill="#333"/><path d="M955.52 883.63l-14.97.87 6.74-13.4z" stroke="#333" stroke-width="3" fill="#333"/><path d="M1113.38 884.95l28.85-.6 29.95-1.9 29.16-3.05 28.08-4.14 26.75-5.1 25.28-5.93 23.73-6.62 22.14-7.18 20.6-7.65 19.07-8 17.63-8.3 16.3-8.53 15.05-8.7 13.9-8.8 12.82-8.9 11.84-9 10.94-9.04 10.1-9.1 9.36-9.15 8.64-9.2 8-9.27 7.4-9.33 6.83-9.4 6.32-9.5 5.8-9.6 5.36-9.72 4.9-9.87 4.47-10.04 4.04-10.22 3.63-10.45 3.23-10.7 2.82-10.96 2.4-11.3 1.96-11.66 1.53-12.05 1.04-12.52.1-2.26" stroke="#333" stroke-width="3" stroke-linejoin="round" fill="none"/><path d="M1113.45 886.42l-1.58.04v-2.95l1.5-.02z" stroke="#333" stroke-width=".05" fill="#333"/><path d="M1563.84 562.73l7.1 13.2-14.98-.43z" stroke="#333" stroke-width="3" fill="#333"/><path d="M959.7 638.2a6 6 0 0 1 6-6h138.67a6 6 0 0 1 6 6V759.5a6 6 0 0 1-6 6H965.7a6 6 0 0 1-6-6z" stroke="#3a414a" stroke-width="3" fill="#fff"/><use xlink:href="#m" transform="matrix(1,0,0,1,967.2370789908588,638.8528426688644) translate(11.738888888888894 50.8)"/><use xlink:href="#n" transform="matrix(1,0,0,1,967.2370789908588,638.8528426688644) translate(27.62777777777778 82)"/><path d="M1197.87 444.23a6 6 0 0 1 6-6h138.66a6 6 0 0 1 6 6v121.34a6 6 0 0 1-6 6h-138.66a6 6 0 0 1-6-6z" stroke="#3a414a" stroke-width="3" fill="#fff"/><use xlink:href="#m" transform="matrix(1,0,0,1,1205.4010470118826,444.9008936894298) translate(11.738888888888894 50.8)"/><use xlink:href="#n" transform="matrix(1,0,0,1,1205.4010470118826,444.9008936894298) translate(27.62777777777778 82)"/><path d="M1351.54 504.9h88.1" stroke="#3a414a" stroke-width="3" stroke-linejoin="round" fill="none"/><path d="M1351.57 506.38h-1.54v-2.95h1.54z" stroke="#3a414a" stroke-width=".05" fill="#3a414a"/><path d="M1454.12 504.9l-13 7.5v-15z" stroke="#3a414a" stroke-width="3" fill="#3a414a"/><path d="M1113.37 512.72h65.5" stroke="#3a414a" stroke-width="3" stroke-linejoin="round" fill="none"/><path d="M1113.4 514.2h-1.53v-2.95h1.54z" stroke="#3a414a" stroke-width=".05" fill="#3a414a"/><path d="M1193.37 512.72l-13 7.5v-15z" stroke="#3a414a" stroke-width="3" fill="#3a414a"/><path d="M959.7 824.32a6 6 0 0 1 6-6h138.67a6 6 0 0 1 6 6v121.33a6 6 0 0 1-6 6H965.7a6 6 0 0 1-6-6z" stroke="#3a414a" stroke-width="3" fill="#fff"/><g><use xlink:href="#m" transform="matrix(1,0,0,1,967.2370789908588,824.9815062554998) translate(11.738888888888894 50.8)"/><use xlink:href="#n" transform="matrix(1,0,0,1,967.2370789908588,824.9815062554998) translate(27.62777777777778 82)"/></g><path d="M829.97 510.26l1.23.08 1.32.14 1.3.2 1.28.23 1.27.3 1.27.36 1.26.4 1.26.48 1.27.54 1.3.6 1.3.68 1.32.77 1.36.87 1.4.97 1.44 1.1 1.5 1.22 1.55 1.4 1.63 1.6 1.72 1.83 1.83 2.13 1.96 2.48 2.13 2.92 2.32 3.5 2.58 4.28 2.94 5.35 3.44 6.95 4.28 9.65 6.16 15.65 25.63 70.83 4.28 9.65 3.46 6.95 2.93 5.35 2.58 4.28 2.32 3.5 2.13 2.94 1.96 2.48 1.82 2.12 1.72 1.84 1.63 1.6 1.56 1.4 1.5 1.24 1.44 1.1 1.4.96 1.35.86.25.15" stroke="#333" stroke-width="3" stroke-linejoin="round" fill="none"/><path d="M830.04 508.78l-.06 2.95-1.5-.03v-2.95z" stroke="#333" stroke-width=".05" fill="#333"/><path d="M955.32 698.04l-14.54 3.72 4.05-14.45z" stroke="#333" stroke-width="3" fill="#333"/><defs><path d="M63-220v92h138v28H63V0H30v-248h175v28H63" id="o"/><path d="M114-163C36-179 61-72 57 0H25l-1-190h30c1 12-1 29 2 39 6-27 23-49 58-41v29" id="p"/><path d="M100-194c62-1 85 37 85 99 1 63-27 99-86 99S16-35 15-95c0-66 28-99 85-99zM99-20c44 1 53-31 53-75 0-43-8-75-51-75s-53 32-53 75 10 74 51 75" id="q"/><path d="M117-194c89-4 53 116 60 194h-32v-121c0-31-8-49-39-48C34-167 62-67 57 0H25l-1-190h30c1 10-1 24 2 32 11-22 29-35 61-36" id="r"/><path d="M59-47c-2 24 18 29 38 22v24C64 9 27 4 27-40v-127H5v-23h24l9-43h21v43h35v23H59v120" id="s"/><g id="a"><use transform="matrix(0.07222222222222222,0,0,0.07222222222222222,0,0)" xlink:href="#o"/><use transform="matrix(0.07222222222222222,0,0,0.07222222222222222,15.816666666666665,0)" xlink:href="#p"/><use transform="matrix(0.07222222222222222,0,0,0.07222222222222222,24.411111111111108,0)" xlink:href="#q"/><use transform="matrix(0.07222222222222222,0,0,0.07222222222222222,38.855555555555554,0)" xlink:href="#r"/><use transform="matrix(0.07222222222222222,0,0,0.07222222222222222,53.3,0)" xlink:href="#s"/></g><path d="M30 0v-248h187v28H63v79h144v27H63v87h162V0H30" id="t"/><path d="M85-194c31 0 48 13 60 33l-1-100h32l1 261h-30c-2-10 0-23-3-31C134-8 116 4 85 4 32 4 16-35 15-94c0-66 23-100 70-100zm9 24c-40 0-46 34-46 75 0 40 6 74 45 74 42 0 51-32 51-76 0-42-9-74-50-73" id="u"/><g id="b"><use transform="matrix(0.07222222222222222,0,0,0.07222222222222222,0,0)" xlink:href="#t"/><use transform="matrix(0.07222222222222222,0,0,0.07222222222222222,17.333333333333332,0)" xlink:href="#r"/><use transform="matrix(0.07222222222222222,0,0,0.07222222222222222,31.777777777777775,0)" xlink:href="#u"/></g><path d="M87 75C49 33 22-17 22-94c0-76 28-126 65-167h31c-38 41-64 92-64 168S80 34 118 75H87" id="v"/><path d="M212-179c-10-28-35-45-73-45-59 0-87 40-87 99 0 60 29 101 89 101 43 0 62-24 78-52l27 14C228-24 195 4 139 4 59 4 22-46 18-125c-6-104 99-153 187-111 19 9 31 26 39 46" id="w"/><path d="M24 0v-261h32V0H24" id="x"/><path d="M84 4C-5 8 30-112 23-190h32v120c0 31 7 50 39 49 72-2 45-101 50-169h31l1 190h-30c-1-10 1-25-2-33-11 22-28 36-60 37" id="y"/><g id="c"><use transform="matrix(0.07222222222222222,0,0,0.07222222222222222,0,0)" xlink:href="#v"/><use transform="matrix(0.07222222222222222,0,0,0.07222222222222222,8.594444444444443,0)" xlink:href="#w"/><use transform="matrix(0.07222222222222222,0,0,0.07222222222222222,27.299999999999997,0)" xlink:href="#x"/><use transform="matrix(0.07222222222222222,0,0,0.07222222222222222,33.00555555555555,0)" xlink:href="#q"/><use transform="matrix(0.07222222222222222,0,0,0.07222222222222222,47.449999999999996,0)" xlink:href="#y"/><use transform="matrix(0.07222222222222222,0,0,0.07222222222222222,61.89444444444444,0)" xlink:href="#u"/></g><path d="M233-177c-1 41-23 64-60 70L243 0h-38l-65-103H63V0H30v-248c88 3 205-21 203 71zM63-129c60-2 137 13 137-47 0-61-80-42-137-45v92" id="z"/><path d="M33-261c38 41 65 92 65 168S71 34 33 75H2C39 34 66-17 66-93S39-220 2-261h31" id="A"/><g id="d"><use transform="matrix(0.07222222222222222,0,0,0.07222222222222222,0,0)" xlink:href="#z"/><use transform="matrix(0.07222222222222222,0,0,0.07222222222222222,18.705555555555552,0)" xlink:href="#y"/><use transform="matrix(0.07222222222222222,0,0,0.07222222222222222,33.14999999999999,0)" xlink:href="#r"/><use transform="matrix(0.07222222222222222,0,0,0.07222222222222222,47.594444444444434,0)" xlink:href="#A"/></g><path d="M24-231v-30h32v30H24zM24 0v-190h32V0H24" id="B"/><path d="M100-194c63 0 86 42 84 106H49c0 40 14 67 53 68 26 1 43-12 49-29l28 8c-11 28-37 45-77 45C44 4 14-33 15-96c1-61 26-98 85-98zm52 81c6-60-76-77-97-28-3 7-6 17-6 28h103" id="C"/><path d="M115-194c53 0 69 39 70 98 0 66-23 100-70 100C84 3 66-7 56-30L54 0H23l1-261h32v101c10-23 28-34 59-34zm-8 174c40 0 45-34 45-75 0-40-5-75-45-74-42 0-51 32-51 76 0 43 10 73 51 73" id="D"/><path d="M141-36C126-15 110 5 73 4 37 3 15-17 15-53c-1-64 63-63 125-63 3-35-9-54-41-54-24 1-41 7-42 31l-33-3c5-37 33-52 76-52 45 0 72 20 72 64v82c-1 20 7 32 28 27v20c-31 9-61-2-59-35zM48-53c0 20 12 33 32 33 41-3 63-29 60-74-43 2-92-5-92 41" id="E"/><path d="M135-143c-3-34-86-38-87 0 15 53 115 12 119 90S17 21 10-45l28-5c4 36 97 45 98 0-10-56-113-15-118-90-4-57 82-63 122-42 12 7 21 19 24 35" id="F"/><g id="e"><use transform="matrix(0.07222222222222222,0,0,0.07222222222222222,0,0)" xlink:href="#o"/><use transform="matrix(0.07222222222222222,0,0,0.07222222222222222,15.816666666666665,0)" xlink:href="#B"/><use transform="matrix(0.07222222222222222,0,0,0.07222222222222222,21.52222222222222,0)" xlink:href="#p"/><use transform="matrix(0.07222222222222222,0,0,0.07222222222222222,30.11666666666666,0)" xlink:href="#C"/><use transform="matrix(0.07222222222222222,0,0,0.07222222222222222,44.56111111111111,0)" xlink:href="#D"/><use transform="matrix(0.07222222222222222,0,0,0.07222222222222222,59.00555555555554,0)" xlink:href="#E"/><use transform="matrix(0.07222222222222222,0,0,0.07222222222222222,73.44999999999999,0)" xlink:href="#F"/><use transform="matrix(0.07222222222222222,0,0,0.07222222222222222,86.44999999999999,0)" xlink:href="#C"/></g><g id="f"><use transform="matrix(0.07222222222222222,0,0,0.07222222222222222,0,0)" xlink:href="#o"/><use transform="matrix(0.07222222222222222,0,0,0.07222222222222222,15.816666666666665,0)" xlink:href="#B"/><use transform="matrix(0.07222222222222222,0,0,0.07222222222222222,21.52222222222222,0)" xlink:href="#p"/><use transform="matrix(0.07222222222222222,0,0,0.07222222222222222,30.11666666666666,0)" xlink:href="#C"/><use transform="matrix(0.07222222222222222,0,0,0.07222222222222222,44.56111111111111,0)" xlink:href="#F"/><use transform="matrix(0.07222222222222222,0,0,0.07222222222222222,57.5611111111111,0)" xlink:href="#s"/><use transform="matrix(0.07222222222222222,0,0,0.07222222222222222,64.78333333333333,0)" xlink:href="#q"/><use transform="matrix(0.07222222222222222,0,0,0.07222222222222222,79.22777777777777,0)" xlink:href="#p"/><use transform="matrix(0.07222222222222222,0,0,0.07222222222222222,87.82222222222224,0)" xlink:href="#C"/></g><path d="M160-131c35 5 61 23 61 61C221 17 115-2 30 0v-248c76 3 177-17 177 60 0 33-19 50-47 57zm-97-11c50-1 110 9 110-42 0-47-63-36-110-37v79zm0 115c55-2 124 14 124-45 0-56-70-42-124-44v89" id="G"/><path d="M96-169c-40 0-48 33-48 73s9 75 48 75c24 0 41-14 43-38l32 2c-6 37-31 61-74 61-59 0-76-41-82-99-10-93 101-131 147-64 4 7 5 14 7 22l-32 3c-4-21-16-35-41-35" id="H"/><path d="M143 0L79-87 56-68V0H24v-261h32v163l83-92h37l-77 82L181 0h-38" id="I"/><g id="g"><use transform="matrix(0.07222222222222222,0,0,0.07222222222222222,0,0)" xlink:href="#G"/><use transform="matrix(0.07222222222222222,0,0,0.07222222222222222,17.333333333333332,0)" xlink:href="#E"/><use transform="matrix(0.07222222222222222,0,0,0.07222222222222222,31.777777777777775,0)" xlink:href="#H"/><use transform="matrix(0.07222222222222222,0,0,0.07222222222222222,44.77777777777777,0)" xlink:href="#I"/><use transform="matrix(0.07222222222222222,0,0,0.07222222222222222,57.77777777777777,0)" xlink:href="#C"/><use transform="matrix(0.07222222222222222,0,0,0.07222222222222222,72.22222222222221,0)" xlink:href="#r"/><use transform="matrix(0.07222222222222222,0,0,0.07222222222222222,86.66666666666666,0)" xlink:href="#u"/></g><g id="h"><use transform="matrix(0.07222222222222222,0,0,0.07222222222222222,0,0)" xlink:href="#v"/><use transform="matrix(0.07222222222222222,0,0,0.07222222222222222,8.594444444444443,0)" xlink:href="#w"/><use transform="matrix(0.07222222222222222,0,0,0.07222222222222222,27.299999999999997,0)" xlink:href="#x"/><use transform="matrix(0.07222222222222222,0,0,0.07222222222222222,33.00555555555555,0)" xlink:href="#q"/><use transform="matrix(0.07222222222222222,0,0,0.07222222222222222,47.449999999999996,0)" xlink:href="#y"/><use transform="matrix(0.07222222222222222,0,0,0.07222222222222222,61.89444444444444,0)" xlink:href="#u"/></g><g id="i"><use transform="matrix(0.07222222222222222,0,0,0.07222222222222222,0,0)" xlink:href="#z"/><use transform="matrix(0.07222222222222222,0,0,0.07222222222222222,18.705555555555552,0)" xlink:href="#y"/><use transform="matrix(0.07222222222222222,0,0,0.07222222222222222,33.14999999999999,0)" xlink:href="#r"/></g><path d="M153-248C145-148 188 4 80 4 36 3 13-21 6-62l32-5c4 25 16 42 43 43 27 0 39-20 39-49v-147H72v-28h81" id="J"/><g id="j"><use transform="matrix(0.07222222222222222,0,0,0.07222222222222222,0,0)" xlink:href="#J"/><use transform="matrix(0.07222222222222222,0,0,0.07222222222222222,12.999999999999998,0)" xlink:href="#q"/><use transform="matrix(0.07222222222222222,0,0,0.07222222222222222,27.444444444444443,0)" xlink:href="#D"/><use transform="matrix(0.07222222222222222,0,0,0.07222222222222222,41.888888888888886,0)" xlink:href="#A"/></g><g id="k"><use transform="matrix(0.07222222222222222,0,0,0.07222222222222222,0,0)" xlink:href="#o"/><use transform="matrix(0.07222222222222222,0,0,0.07222222222222222,15.816666666666665,0)" xlink:href="#B"/><use transform="matrix(0.07222222222222222,0,0,0.07222222222222222,21.52222222222222,0)" xlink:href="#p"/><use transform="matrix(0.07222222222222222,0,0,0.07222222222222222,30.11666666666666,0)" xlink:href="#C"/><use transform="matrix(0.07222222222222222,0,0,0.07222222222222222,44.56111111111111,0)" xlink:href="#D"/><use transform="matrix(0.07222222222222222,0,0,0.07222222222222222,59.00555555555554,0)" xlink:href="#E"/><use transform="matrix(0.07222222222222222,0,0,0.07222222222222222,73.44999999999999,0)" xlink:href="#F"/><use transform="matrix(0.07222222222222222,0,0,0.07222222222222222,86.44999999999999,0)" xlink:href="#C"/></g><path d="M205 0l-28-72H64L36 0H1l101-248h38L239 0h-34zm-38-99l-47-123c-12 45-31 82-46 123h93" id="K"/><path d="M106-169C34-169 62-67 57 0H25v-261h32l-1 103c12-21 28-36 61-36 89 0 53 116 60 194h-32v-121c2-32-8-49-39-48" id="L"/><g id="l"><use transform="matrix(0.07222222222222222,0,0,0.07222222222222222,0,0)" xlink:href="#K"/><use transform="matrix(0.07222222222222222,0,0,0.07222222222222222,17.333333333333332,0)" xlink:href="#y"/><use transform="matrix(0.07222222222222222,0,0,0.07222222222222222,31.777777777777775,0)" xlink:href="#s"/><use transform="matrix(0.07222222222222222,0,0,0.07222222222222222,38.99999999999999,0)" xlink:href="#L"/></g><g id="m"><use transform="matrix(0.07222222222222222,0,0,0.07222222222222222,0,0)" xlink:href="#o"/><use transform="matrix(0.07222222222222222,0,0,0.07222222222222222,15.816666666666665,0)" xlink:href="#y"/><use transform="matrix(0.07222222222222222,0,0,0.07222222222222222,30.261111111111106,0)" xlink:href="#r"/><use transform="matrix(0.07222222222222222,0,0,0.07222222222222222,44.70555555555555,0)" xlink:href="#H"/><use transform="matrix(0.07222222222222222,0,0,0.07222222222222222,57.70555555555555,0)" xlink:href="#s"/><use transform="matrix(0.07222222222222222,0,0,0.07222222222222222,64.92777777777778,0)" xlink:href="#B"/><use transform="matrix(0.07222222222222222,0,0,0.07222222222222222,70.63333333333333,0)" xlink:href="#q"/><use transform="matrix(0.07222222222222222,0,0,0.07222222222222222,85.07777777777777,0)" xlink:href="#r"/><use transform="matrix(0.07222222222222222,0,0,0.07222222222222222,99.52222222222221,0)" xlink:href="#F"/></g><path d="M143 4C61 4 22-44 18-125c-5-107 100-154 193-111 17 8 29 25 37 43l-32 9c-13-25-37-40-76-40-61 0-88 39-88 99 0 61 29 100 91 101 35 0 62-11 79-27v-45h-74v-28h105v86C228-13 192 4 143 4" id="M"/><path d="M101-251c82-7 93 87 43 132L82-64C71-53 59-42 53-27h129V0H18c2-99 128-94 128-182 0-28-16-43-45-43s-46 15-49 41l-32-3c6-41 34-60 81-64" id="N"/><g id="n"><use transform="matrix(0.07222222222222222,0,0,0.07222222222222222,0,0)" xlink:href="#v"/><use transform="matrix(0.07222222222222222,0,0,0.07222222222222222,8.594444444444443,0)" xlink:href="#M"/><use transform="matrix(0.07222222222222222,0,0,0.07222222222222222,28.816666666666663,0)" xlink:href="#C"/><use transform="matrix(0.07222222222222222,0,0,0.07222222222222222,43.261111111111106,0)" xlink:href="#r"/><use transform="matrix(0.07222222222222222,0,0,0.07222222222222222,57.70555555555555,0)" xlink:href="#N"/><use transform="matrix(0.07222222222222222,0,0,0.07222222222222222,72.14999999999999,0)" xlink:href="#A"/></g></defs></g></svg>