<svg xmlns="http://www.w3.org/2000/svg" xmlns:xlink="http://www.w3.org/1999/xlink" xmlns:lucid="lucid" width="866.97" height="630.85"><g transform="translate(-618.8489840128304 -195.53654535740438)" lucid:page-tab-id="0_0"><path d="M620.35 449.56a6 6 0 0 1 6-6h194.62a6 6 0 0 1 6 6V570.9a6 6 0 0 1-6 6H626.35a6 6 0 0 1-6-6z" stroke="#3a414a" stroke-width="3" fill="#fff"/><use xlink:href="#a" transform="matrix(1,0,0,1,630.6798140752712,450.22225354041683) translate(36.01666666666667 50.8)"/><use xlink:href="#b" transform="matrix(1,0,0,1,630.6798140752712,450.22225354041683) translate(103.76111111111112 50.8)"/><use xlink:href="#c" transform="matrix(1,0,0,1,630.6798140752712,450.22225354041683) translate(23.125000000000014 82)"/><use xlink:href="#d" transform="matrix(1,0,0,1,630.6798140752712,450.22225354041683) translate(106.68611111111112 82)"/><path d="M925.7 203.04a6 6 0 0 1 6-6h206.67a6 6 0 0 1 6 6V818.9a6 6 0 0 1-6 6H931.7a6 6 0 0 1-6-6z" stroke="#3a414a" stroke-width="3" fill="#fff"/><use xlink:href="#e" transform="matrix(1,0,0,1,936.637078990859,228.42916409988834) translate(48.052777777777784 20.8)"/><path d="M959.7 449.56a6 6 0 0 1 6-6h138.67a6 6 0 0 1 6 6V570.9a6 6 0 0 1-6 6H965.7a6 6 0 0 1-6-6z" stroke="#3a414a" stroke-width="3" fill="#fff"/><use xlink:href="#f" transform="matrix(1,0,0,1,967.237078990859,450.22225354041683) translate(16.866666666666667 65.8)"/><path d="M959.7 622.9a6 6 0 0 1 6-6h138.67a6 6 0 0 1 6 6V744.2a6 6 0 0 1-6 6H965.7a6 6 0 0 1-6-6z" stroke="#3a414a" stroke-width="3" fill="#fff"/><use xlink:href="#g" transform="matrix(1,0,0,1,967.237078990859,623.55558687375) translate(11.738888888888894 50.8)"/><use xlink:href="#h" transform="matrix(1,0,0,1,967.237078990859,623.55558687375) translate(27.62777777777778 82)"/><path d="M1273.7 449.56a6 6 0 0 1 6-6h198.62a6 6 0 0 1 6 6v108a6 6 0 0 1-6 6h-198.6a6 6 0 0 1-6-6z" stroke="#3a414a" stroke-width="3" fill="#fff"/><use xlink:href="#i" transform="matrix(1,0,0,1,1284.2368368784223,449.55558687375014) translate(44.44444444444445 44.425)"/><use xlink:href="#j" transform="matrix(1,0,0,1,1284.2368368784223,449.55558687375014) translate(0.5694444444444571 75.625)"/><use xlink:href="#k" transform="matrix(1,0,0,1,1284.2368368784223,449.55558687375014) translate(84.13055555555556 75.625)"/><use xlink:href="#l" transform="matrix(1,0,0,1,1284.2368368784223,449.55558687375014) translate(138.94722222222222 75.625)"/><path d="M959.7 281.23a6 6 0 0 1 6-6h138.67a6 6 0 0 1 6 6v121.33a6 6 0 0 1-6 6H965.7a6 6 0 0 1-6-6z" stroke="#3a414a" stroke-width="3" fill="#fff"/><use xlink:href="#m" transform="matrix(1,0,0,1,967.237078990859,281.8927712907076) translate(17.552777777777784 50.8)"/><use xlink:href="#n" transform="matrix(1,0,0,1,967.237078990859,281.8927712907076) translate(41.27777777777778 82)"/><path d="M725.08 424.64l.65-3.4.8-3.46.93-3.3 1.03-3.14 1.1-3.02 1.23-2.9 1.32-2.8 1.42-2.73 1.52-2.65 1.63-2.58 1.75-2.52 1.88-2.47 2-2.44 2.18-2.4 2.33-2.37 2.5-2.36 2.72-2.33 2.93-2.33 3.2-2.33 3.52-2.32 3.85-2.33 4.26-2.34 4.73-2.34 5.3-2.36 5.97-2.36 6.8-2.37 7.84-2.36 9.14-2.33 10.85-2.3 13.14-2.2 16.5-2.08 21.98-1.83 33.98-1.36 50.6-.3" stroke="#3a414a" stroke-width="3" stroke-linejoin="round" fill="none"/><path d="M723.9 439.06l-6.4-13.56 14.94 1.23z" stroke="#3a414a" stroke-width="3" fill="#3a414a"/><path d="M958.2 343.37h-1.53v-2.94h1.53z" stroke="#3a414a" stroke-width=".05" fill="#3a414a"/><path d="M829.97 510.22H940.7" stroke="#3a414a" stroke-width="3" stroke-linejoin="round" fill="none"/><path d="M830 511.7h-1.53v-2.95H830z" stroke="#3a414a" stroke-width=".05" fill="#3a414a"/><path d="M955.2 510.22l-13 7.5v-15z" stroke="#3a414a" stroke-width="3" fill="#3a414a"/><path d="M829.97 510.25l1.46.1 1.43.15 1.4.2 1.38.27 1.37.32 1.37.37 1.35.43 1.35.5 1.35.58 1.37.64 1.38.73 1.4.8 1.45.92 1.47 1.03 1.52 1.16 1.58 1.3 1.64 1.48 1.72 1.7 1.82 1.92 1.93 2.24 2.08 2.62 2.25 3.1 2.47 3.7 2.76 4.6 3.2 5.8 3.83 7.75 5.1 11.53 28.98 72.9 3.84 7.76 3.2 5.8 2.75 4.6 2.47 3.7 2.25 3.1 2.06 2.62 1.93 2.24 1.8 1.93 1.73 1.7 1.64 1.47 1.57 1.3 1.53 1.16 1.47 1.02 1.44.92 1.38.8" stroke="#3a414a" stroke-width="3" stroke-linejoin="round" fill="none"/><path d="M830.04 508.78l-.06 2.95-1.5-.03v-2.95z" stroke="#3a414a" stroke-width=".05" fill="#3a414a"/><path d="M955.3 682.8l-14.46 4 3.77-14.52z" stroke="#3a414a" stroke-width="3" fill="#3a414a"/><path d="M1162 511.7h-32.64v-2.95H1162zm108.7 0h-48.6v-2.95h48.6z" stroke="#3a414a" stroke-width=".05" fill="#3a414a"/><path d="M1127.86 517.72l-13-7.5 13-7.5z" fill="#3a414a"/><path d="M1129.34 520.28l-17.42-10.06 17.42-10.05zm-11.52-10.06l8.57 4.95v-9.9z" stroke="#3a414a" stroke-width=".05" fill="#3a414a"/><path d="M1272.2 511.7h-1.53v-2.95h1.54z" fill="#3a414a"/><path stroke="#3a414a" stroke-width=".05" fill="#3a414a"/><use xlink:href="#o" transform="matrix(1,0,0,1,1161.9902251393723,488.8889201255979) translate(0 14.222222222222223)"/><use xlink:href="#p" transform="matrix(1,0,0,1,1161.9902251393723,488.8889201255979) translate(0 35.55555555555556)"/><path d="M1035.04 613.9v-18.02" stroke="#3a414a" stroke-width="3" stroke-linejoin="round" fill="none"/><path d="M1036.5 615.4h-2.94v-1.55h2.95z" stroke="#3a414a" stroke-width=".05" fill="#3a414a"/><path d="M1035.04 581.4l7.5 12.98h-15z" stroke="#3a414a" stroke-width="3" fill="#3a414a"/><path d="M1128.07 684.8l-14.67.2-.05-2.94 14.68-.22zm44.03-.68l-29.35.45-.05-2.95 29.35-.45zm44.1-2.15l-.32.03-29.05 1.78-.18-2.94 28.98-1.78.26-.03zM1342.14 645l-1.26.96-4.07 2.8-4.44 2.83-4.9 2.82-5.44 2.83-5.5 2.6-1.27-2.68 5.45-2.56 5.32-2.77 4.8-2.76 4.33-2.76 3.95-2.73 1.22-.93zm28.53-33.86l-1.14 2.3-1.76 3.2-1.9 3.15-2.04 3.06-2.2 3-2.33 2.96-2.5 2.92-2.7 2.88-.7.67-2.07-2.1.65-.65 2.62-2.8 2.44-2.8 2.26-2.87 2.12-2.9 1.96-2.97 1.84-3.02 1.7-3.1 1.12-2.25zm8.58-28.47l-.04.33-.75 4.45-.9 4.2-1.03 4.02-.47 1.57-2.83-.85.46-1.52 1-3.9.87-4.1.73-4.3.03-.28z" stroke="#3a414a" stroke-width=".05" fill="#3a414a"/><path d="M1113.43 685l-1.56.03v-2.95l1.52-.02z" fill="#3a414a"/><path stroke="#3a414a" stroke-width=".05" fill="#3a414a"/><path d="M1385.38 581.53l-14.96-1.04 8.38-12.45z" fill="#3a414a"/><path d="M1387.83 583.18l-20.06-1.4L1379 565.1zm-14.76-4l9.86.7-4.33-8.9z" stroke="#3a414a" stroke-width=".05" fill="#3a414a"/><g><use xlink:href="#q" transform="matrix(1,0,0,1,1225.4578396486452,661.1535247077039) translate(0 14.222222222222223)"/><use xlink:href="#r" transform="matrix(1,0,0,1,1225.4578396486452,661.1535247077039) translate(38.41975308641976 14.222222222222223)"/></g><defs><path d="M63-220v92h138v28H63V0H30v-248h175v28H63" id="s"/><path d="M114-163C36-179 61-72 57 0H25l-1-190h30c1 12-1 29 2 39 6-27 23-49 58-41v29" id="t"/><path d="M100-194c62-1 85 37 85 99 1 63-27 99-86 99S16-35 15-95c0-66 28-99 85-99zM99-20c44 1 53-31 53-75 0-43-8-75-51-75s-53 32-53 75 10 74 51 75" id="u"/><path d="M117-194c89-4 53 116 60 194h-32v-121c0-31-8-49-39-48C34-167 62-67 57 0H25l-1-190h30c1 10-1 24 2 32 11-22 29-35 61-36" id="v"/><path d="M59-47c-2 24 18 29 38 22v24C64 9 27 4 27-40v-127H5v-23h24l9-43h21v43h35v23H59v120" id="w"/><g id="a"><use transform="matrix(0.07222222222222222,0,0,0.07222222222222222,0,0)" xlink:href="#s"/><use transform="matrix(0.07222222222222222,0,0,0.07222222222222222,15.816666666666665,0)" xlink:href="#t"/><use transform="matrix(0.07222222222222222,0,0,0.07222222222222222,24.411111111111108,0)" xlink:href="#u"/><use transform="matrix(0.07222222222222222,0,0,0.07222222222222222,38.855555555555554,0)" xlink:href="#v"/><use transform="matrix(0.07222222222222222,0,0,0.07222222222222222,53.3,0)" xlink:href="#w"/></g><path d="M30 0v-248h187v28H63v79h144v27H63v87h162V0H30" id="x"/><path d="M85-194c31 0 48 13 60 33l-1-100h32l1 261h-30c-2-10 0-23-3-31C134-8 116 4 85 4 32 4 16-35 15-94c0-66 23-100 70-100zm9 24c-40 0-46 34-46 75 0 40 6 74 45 74 42 0 51-32 51-76 0-42-9-74-50-73" id="y"/><g id="b"><use transform="matrix(0.07222222222222222,0,0,0.07222222222222222,0,0)" xlink:href="#x"/><use transform="matrix(0.07222222222222222,0,0,0.07222222222222222,17.333333333333332,0)" xlink:href="#v"/><use transform="matrix(0.07222222222222222,0,0,0.07222222222222222,31.777777777777775,0)" xlink:href="#y"/></g><path d="M87 75C49 33 22-17 22-94c0-76 28-126 65-167h31c-38 41-64 92-64 168S80 34 118 75H87" id="z"/><path d="M212-179c-10-28-35-45-73-45-59 0-87 40-87 99 0 60 29 101 89 101 43 0 62-24 78-52l27 14C228-24 195 4 139 4 59 4 22-46 18-125c-6-104 99-153 187-111 19 9 31 26 39 46" id="A"/><path d="M24 0v-261h32V0H24" id="B"/><path d="M84 4C-5 8 30-112 23-190h32v120c0 31 7 50 39 49 72-2 45-101 50-169h31l1 190h-30c-1-10 1-25-2-33-11 22-28 36-60 37" id="C"/><g id="c"><use transform="matrix(0.07222222222222222,0,0,0.07222222222222222,0,0)" xlink:href="#z"/><use transform="matrix(0.07222222222222222,0,0,0.07222222222222222,8.594444444444443,0)" xlink:href="#A"/><use transform="matrix(0.07222222222222222,0,0,0.07222222222222222,27.299999999999997,0)" xlink:href="#B"/><use transform="matrix(0.07222222222222222,0,0,0.07222222222222222,33.00555555555555,0)" xlink:href="#u"/><use transform="matrix(0.07222222222222222,0,0,0.07222222222222222,47.449999999999996,0)" xlink:href="#C"/><use transform="matrix(0.07222222222222222,0,0,0.07222222222222222,61.89444444444444,0)" xlink:href="#y"/></g><path d="M233-177c-1 41-23 64-60 70L243 0h-38l-65-103H63V0H30v-248c88 3 205-21 203 71zM63-129c60-2 137 13 137-47 0-61-80-42-137-45v92" id="D"/><path d="M33-261c38 41 65 92 65 168S71 34 33 75H2C39 34 66-17 66-93S39-220 2-261h31" id="E"/><g id="d"><use transform="matrix(0.07222222222222222,0,0,0.07222222222222222,0,0)" xlink:href="#D"/><use transform="matrix(0.07222222222222222,0,0,0.07222222222222222,18.705555555555552,0)" xlink:href="#C"/><use transform="matrix(0.07222222222222222,0,0,0.07222222222222222,33.14999999999999,0)" xlink:href="#v"/><use transform="matrix(0.07222222222222222,0,0,0.07222222222222222,47.594444444444434,0)" xlink:href="#E"/></g><path d="M24-231v-30h32v30H24zM24 0v-190h32V0H24" id="F"/><path d="M100-194c63 0 86 42 84 106H49c0 40 14 67 53 68 26 1 43-12 49-29l28 8c-11 28-37 45-77 45C44 4 14-33 15-96c1-61 26-98 85-98zm52 81c6-60-76-77-97-28-3 7-6 17-6 28h103" id="G"/><path d="M115-194c53 0 69 39 70 98 0 66-23 100-70 100C84 3 66-7 56-30L54 0H23l1-261h32v101c10-23 28-34 59-34zm-8 174c40 0 45-34 45-75 0-40-5-75-45-74-42 0-51 32-51 76 0 43 10 73 51 73" id="H"/><path d="M141-36C126-15 110 5 73 4 37 3 15-17 15-53c-1-64 63-63 125-63 3-35-9-54-41-54-24 1-41 7-42 31l-33-3c5-37 33-52 76-52 45 0 72 20 72 64v82c-1 20 7 32 28 27v20c-31 9-61-2-59-35zM48-53c0 20 12 33 32 33 41-3 63-29 60-74-43 2-92-5-92 41" id="I"/><path d="M135-143c-3-34-86-38-87 0 15 53 115 12 119 90S17 21 10-45l28-5c4 36 97 45 98 0-10-56-113-15-118-90-4-57 82-63 122-42 12 7 21 19 24 35" id="J"/><g id="e"><use transform="matrix(0.07222222222222222,0,0,0.07222222222222222,0,0)" xlink:href="#s"/><use transform="matrix(0.07222222222222222,0,0,0.07222222222222222,15.816666666666665,0)" xlink:href="#F"/><use transform="matrix(0.07222222222222222,0,0,0.07222222222222222,21.52222222222222,0)" xlink:href="#t"/><use transform="matrix(0.07222222222222222,0,0,0.07222222222222222,30.11666666666666,0)" xlink:href="#G"/><use transform="matrix(0.07222222222222222,0,0,0.07222222222222222,44.56111111111111,0)" xlink:href="#H"/><use transform="matrix(0.07222222222222222,0,0,0.07222222222222222,59.00555555555554,0)" xlink:href="#I"/><use transform="matrix(0.07222222222222222,0,0,0.07222222222222222,73.44999999999999,0)" xlink:href="#J"/><use transform="matrix(0.07222222222222222,0,0,0.07222222222222222,86.44999999999999,0)" xlink:href="#G"/></g><g id="f"><use transform="matrix(0.07222222222222222,0,0,0.07222222222222222,0,0)" xlink:href="#s"/><use transform="matrix(0.07222222222222222,0,0,0.07222222222222222,15.816666666666665,0)" xlink:href="#F"/><use transform="matrix(0.07222222222222222,0,0,0.07222222222222222,21.52222222222222,0)" xlink:href="#t"/><use transform="matrix(0.07222222222222222,0,0,0.07222222222222222,30.11666666666666,0)" xlink:href="#G"/><use transform="matrix(0.07222222222222222,0,0,0.07222222222222222,44.56111111111111,0)" xlink:href="#J"/><use transform="matrix(0.07222222222222222,0,0,0.07222222222222222,57.5611111111111,0)" xlink:href="#w"/><use transform="matrix(0.07222222222222222,0,0,0.07222222222222222,64.78333333333333,0)" xlink:href="#u"/><use transform="matrix(0.07222222222222222,0,0,0.07222222222222222,79.22777777777777,0)" xlink:href="#t"/><use transform="matrix(0.07222222222222222,0,0,0.07222222222222222,87.82222222222224,0)" xlink:href="#G"/></g><path d="M96-169c-40 0-48 33-48 73s9 75 48 75c24 0 41-14 43-38l32 2c-6 37-31 61-74 61-59 0-76-41-82-99-10-93 101-131 147-64 4 7 5 14 7 22l-32 3c-4-21-16-35-41-35" id="K"/><g id="g"><use transform="matrix(0.07222222222222222,0,0,0.07222222222222222,0,0)" xlink:href="#s"/><use transform="matrix(0.07222222222222222,0,0,0.07222222222222222,15.816666666666665,0)" xlink:href="#C"/><use transform="matrix(0.07222222222222222,0,0,0.07222222222222222,30.261111111111106,0)" xlink:href="#v"/><use transform="matrix(0.07222222222222222,0,0,0.07222222222222222,44.70555555555555,0)" xlink:href="#K"/><use transform="matrix(0.07222222222222222,0,0,0.07222222222222222,57.70555555555555,0)" xlink:href="#w"/><use transform="matrix(0.07222222222222222,0,0,0.07222222222222222,64.92777777777778,0)" xlink:href="#F"/><use transform="matrix(0.07222222222222222,0,0,0.07222222222222222,70.63333333333333,0)" xlink:href="#u"/><use transform="matrix(0.07222222222222222,0,0,0.07222222222222222,85.07777777777777,0)" xlink:href="#v"/><use transform="matrix(0.07222222222222222,0,0,0.07222222222222222,99.52222222222221,0)" xlink:href="#J"/></g><path d="M143 4C61 4 22-44 18-125c-5-107 100-154 193-111 17 8 29 25 37 43l-32 9c-13-25-37-40-76-40-61 0-88 39-88 99 0 61 29 100 91 101 35 0 62-11 79-27v-45h-74v-28h105v86C228-13 192 4 143 4" id="L"/><path d="M101-251c82-7 93 87 43 132L82-64C71-53 59-42 53-27h129V0H18c2-99 128-94 128-182 0-28-16-43-45-43s-46 15-49 41l-32-3c6-41 34-60 81-64" id="M"/><g id="h"><use transform="matrix(0.07222222222222222,0,0,0.07222222222222222,0,0)" xlink:href="#z"/><use transform="matrix(0.07222222222222222,0,0,0.07222222222222222,8.594444444444443,0)" xlink:href="#L"/><use transform="matrix(0.07222222222222222,0,0,0.07222222222222222,28.816666666666663,0)" xlink:href="#G"/><use transform="matrix(0.07222222222222222,0,0,0.07222222222222222,43.261111111111106,0)" xlink:href="#v"/><use transform="matrix(0.07222222222222222,0,0,0.07222222222222222,57.70555555555555,0)" xlink:href="#M"/><use transform="matrix(0.07222222222222222,0,0,0.07222222222222222,72.14999999999999,0)" xlink:href="#E"/></g><path d="M160-131c35 5 61 23 61 61C221 17 115-2 30 0v-248c76 3 177-17 177 60 0 33-19 50-47 57zm-97-11c50-1 110 9 110-42 0-47-63-36-110-37v79zm0 115c55-2 124 14 124-45 0-56-70-42-124-44v89" id="N"/><path d="M143 0L79-87 56-68V0H24v-261h32v163l83-92h37l-77 82L181 0h-38" id="O"/><g id="i"><use transform="matrix(0.07222222222222222,0,0,0.07222222222222222,0,0)" xlink:href="#N"/><use transform="matrix(0.07222222222222222,0,0,0.07222222222222222,17.333333333333332,0)" xlink:href="#I"/><use transform="matrix(0.07222222222222222,0,0,0.07222222222222222,31.777777777777775,0)" xlink:href="#K"/><use transform="matrix(0.07222222222222222,0,0,0.07222222222222222,44.77777777777777,0)" xlink:href="#O"/><use transform="matrix(0.07222222222222222,0,0,0.07222222222222222,57.77777777777777,0)" xlink:href="#G"/><use transform="matrix(0.07222222222222222,0,0,0.07222222222222222,72.22222222222221,0)" xlink:href="#v"/><use transform="matrix(0.07222222222222222,0,0,0.07222222222222222,86.66666666666666,0)" xlink:href="#y"/></g><g id="j"><use transform="matrix(0.07222222222222222,0,0,0.07222222222222222,0,0)" xlink:href="#z"/><use transform="matrix(0.07222222222222222,0,0,0.07222222222222222,8.594444444444443,0)" xlink:href="#A"/><use transform="matrix(0.07222222222222222,0,0,0.07222222222222222,27.299999999999997,0)" xlink:href="#B"/><use transform="matrix(0.07222222222222222,0,0,0.07222222222222222,33.00555555555555,0)" xlink:href="#u"/><use transform="matrix(0.07222222222222222,0,0,0.07222222222222222,47.449999999999996,0)" xlink:href="#C"/><use transform="matrix(0.07222222222222222,0,0,0.07222222222222222,61.89444444444444,0)" xlink:href="#y"/></g><g id="k"><use transform="matrix(0.07222222222222222,0,0,0.07222222222222222,0,0)" xlink:href="#D"/><use transform="matrix(0.07222222222222222,0,0,0.07222222222222222,18.705555555555552,0)" xlink:href="#C"/><use transform="matrix(0.07222222222222222,0,0,0.07222222222222222,33.14999999999999,0)" xlink:href="#v"/></g><path d="M153-248C145-148 188 4 80 4 36 3 13-21 6-62l32-5c4 25 16 42 43 43 27 0 39-20 39-49v-147H72v-28h81" id="P"/><g id="l"><use transform="matrix(0.07222222222222222,0,0,0.07222222222222222,0,0)" xlink:href="#P"/><use transform="matrix(0.07222222222222222,0,0,0.07222222222222222,12.999999999999998,0)" xlink:href="#u"/><use transform="matrix(0.07222222222222222,0,0,0.07222222222222222,27.444444444444443,0)" xlink:href="#H"/><use transform="matrix(0.07222222222222222,0,0,0.07222222222222222,41.888888888888886,0)" xlink:href="#E"/></g><g id="m"><use transform="matrix(0.07222222222222222,0,0,0.07222222222222222,0,0)" xlink:href="#s"/><use transform="matrix(0.07222222222222222,0,0,0.07222222222222222,15.816666666666665,0)" xlink:href="#F"/><use transform="matrix(0.07222222222222222,0,0,0.07222222222222222,21.52222222222222,0)" xlink:href="#t"/><use transform="matrix(0.07222222222222222,0,0,0.07222222222222222,30.11666666666666,0)" xlink:href="#G"/><use transform="matrix(0.07222222222222222,0,0,0.07222222222222222,44.56111111111111,0)" xlink:href="#H"/><use transform="matrix(0.07222222222222222,0,0,0.07222222222222222,59.00555555555554,0)" xlink:href="#I"/><use transform="matrix(0.07222222222222222,0,0,0.07222222222222222,73.44999999999999,0)" xlink:href="#J"/><use transform="matrix(0.07222222222222222,0,0,0.07222222222222222,86.44999999999999,0)" xlink:href="#G"/></g><path d="M205 0l-28-72H64L36 0H1l101-248h38L239 0h-34zm-38-99l-47-123c-12 45-31 82-46 123h93" id="Q"/><path d="M106-169C34-169 62-67 57 0H25v-261h32l-1 103c12-21 28-36 61-36 89 0 53 116 60 194h-32v-121c2-32-8-49-39-48" id="R"/><g id="n"><use transform="matrix(0.07222222222222222,0,0,0.07222222222222222,0,0)" xlink:href="#Q"/><use transform="matrix(0.07222222222222222,0,0,0.07222222222222222,17.333333333333332,0)" xlink:href="#C"/><use transform="matrix(0.07222222222222222,0,0,0.07222222222222222,31.777777777777775,0)" xlink:href="#w"/><use transform="matrix(0.07222222222222222,0,0,0.07222222222222222,38.99999999999999,0)" xlink:href="#R"/></g><path fill="#333" d="M199 0l-22-63H83L61 0H9l90-248h61L250 0h-51zm-33-102l-36-108c-10 38-24 72-36 108h72" id="S"/><path fill="#333" d="M137-138c1-29-70-34-71-4 15 46 118 7 119 86 1 83-164 76-172 9l43-7c4 19 20 25 44 25 33 8 57-30 24-41C81-84 22-81 20-136c-2-80 154-74 161-7" id="T"/><path fill="#333" d="M123 10C108 53 80 86 19 72V37c35 8 53-11 59-39L3-190h52l48 148c12-52 28-100 44-148h51" id="U"/><path fill="#333" d="M135-194c87-1 58 113 63 194h-50c-7-57 23-157-34-157-59 0-34 97-39 157H25l-1-190h47c2 12-1 28 3 38 12-26 28-41 61-42" id="V"/><path fill="#333" d="M190-63c-7 42-38 67-86 67-59 0-84-38-90-98-12-110 154-137 174-36l-49 2c-2-19-15-32-35-32-30 0-35 28-38 64-6 74 65 87 74 30" id="W"/><g id="o"><use transform="matrix(0.04938271604938272,0,0,0.04938271604938272,0,0)" xlink:href="#S"/><use transform="matrix(0.04938271604938272,0,0,0.04938271604938272,12.790123456790125,0)" xlink:href="#T"/><use transform="matrix(0.04938271604938272,0,0,0.04938271604938272,22.66666666666667,0)" xlink:href="#U"/><use transform="matrix(0.04938271604938272,0,0,0.04938271604938272,32.543209876543216,0)" xlink:href="#V"/><use transform="matrix(0.04938271604938272,0,0,0.04938271604938272,43.35802469135803,0)" xlink:href="#W"/></g><path fill="#333" d="M136-208V0H84v-208H4v-40h212v40h-80" id="X"/><path fill="#333" d="M135-150c-39-12-60 13-60 57V0H25l-1-190h47c2 13-1 29 3 40 6-28 27-53 61-41v41" id="Y"/><path fill="#333" d="M25-224v-37h50v37H25zM25 0v-190h50V0H25" id="Z"/><path fill="#333" d="M195-6C206 82 75 100 31 46c-4-6-6-13-8-21l49-6c3 16 16 24 34 25 40 0 42-37 40-79-11 22-30 35-61 35-53 0-70-43-70-97 0-56 18-96 73-97 30 0 46 14 59 34l2-30h47zm-90-29c32 0 41-27 41-63 0-35-9-62-40-62-32 0-39 29-40 63 0 36 9 62 39 62" id="aa"/><path fill="#333" d="M185-48c-13 30-37 53-82 52C43 2 14-33 14-96s30-98 90-98c62 0 83 45 84 108H66c0 31 8 55 39 56 18 0 30-7 34-22zm-45-69c5-46-57-63-70-21-2 6-4 13-4 21h74" id="ab"/><g id="p"><use transform="matrix(0.04938271604938272,0,0,0.04938271604938272,0,0)" xlink:href="#X"/><use transform="matrix(0.04938271604938272,0,0,0.04938271604938272,9.82716049382716,0)" xlink:href="#Y"/><use transform="matrix(0.04938271604938272,0,0,0.04938271604938272,16.74074074074074,0)" xlink:href="#Z"/><use transform="matrix(0.04938271604938272,0,0,0.04938271604938272,21.679012345679013,0)" xlink:href="#aa"/><use transform="matrix(0.04938271604938272,0,0,0.04938271604938272,32.49382716049383,0)" xlink:href="#aa"/><use transform="matrix(0.04938271604938272,0,0,0.04938271604938272,43.308641975308646,0)" xlink:href="#ab"/><use transform="matrix(0.04938271604938272,0,0,0.04938271604938272,53.18518518518519,0)" xlink:href="#Y"/></g><path fill="#333" d="M67-125c0 53 21 87 73 88 37 1 54-22 65-47l45 17C233-25 199 4 140 4 58 4 20-42 15-125 8-235 124-281 211-232c18 10 29 29 36 50l-46 12c-8-25-30-41-62-41-52 0-71 34-72 86" id="ac"/><path fill="#333" d="M133-34C117-15 103 5 69 4 32 3 11-16 11-54c-1-60 55-63 116-61 1-26-3-47-28-47-18 1-26 9-28 27l-52-2c7-38 36-58 82-57s74 22 75 68l1 82c-1 14 12 18 25 15v27c-30 8-71 5-69-32zm-48 3c29 0 43-24 42-57-32 0-66-3-65 30 0 17 8 27 23 27" id="ad"/><g id="q"><use transform="matrix(0.04938271604938272,0,0,0.04938271604938272,0,0)" xlink:href="#ac"/><use transform="matrix(0.04938271604938272,0,0,0.04938271604938272,12.790123456790125,0)" xlink:href="#ad"/><use transform="matrix(0.04938271604938272,0,0,0.04938271604938272,22.66666666666667,0)" xlink:href="#V"/></g><g id="r"><use transform="matrix(0.04938271604938272,0,0,0.04938271604938272,0,0)" xlink:href="#X"/><use transform="matrix(0.04938271604938272,0,0,0.04938271604938272,9.82716049382716,0)" xlink:href="#Y"/><use transform="matrix(0.04938271604938272,0,0,0.04938271604938272,16.74074074074074,0)" xlink:href="#Z"/><use transform="matrix(0.04938271604938272,0,0,0.04938271604938272,21.679012345679013,0)" xlink:href="#aa"/><use transform="matrix(0.04938271604938272,0,0,0.04938271604938272,32.49382716049383,0)" xlink:href="#aa"/><use transform="matrix(0.04938271604938272,0,0,0.04938271604938272,43.308641975308646,0)" xlink:href="#ab"/><use transform="matrix(0.04938271604938272,0,0,0.04938271604938272,53.18518518518519,0)" xlink:href="#Y"/></g></defs></g></svg>